<svg xmlns="http://www.w3.org/2000/svg" version="1.1" xmlns:xlink="http://www.w3.org/1999/xlink" xmlns:svgjs="http://svgjs.com/svgjs" width="598" height="658"><svg width="598" height="658" viewBox="0 0 598 658" fill="none" xmlns="http://www.w3.org/2000/svg">
<path d="M0.5 0.999976V258.7C0.5 544.2 299 656.5 299 656.5C299 656.5 597.5 544.2 597.5 258.7C597.5 172.8 597.5 86.9 597.5 0.999976H0.5Z" fill="#E20909"></path>
<path d="M597.5 0.999976V287.8C579.1 547.3 311.4 652.9 301 656.9V0.999976H597.5Z" fill="white"></path>
<path d="M248.5 110.7C248.5 150.3 216.4 182.4 176.8 182.4C137.2 182.4 105.1 150.3 105.1 110.7C105.1 71.1 137.3 39 176.9 39C216.5 39 248.5 71.1 248.5 110.7Z" fill="#FCEF3C"></path>
<path d="M248.5 279.1C248.5 318.7 216.4 350.8 176.8 350.8C137.2 350.8 105.1 318.7 105.1 279.1C105.1 239.5 137.2 207.4 176.8 207.4C216.4 207.4 248.5 239.6 248.5 279.1Z" fill="#FCEF3C"></path>
<path d="M248.5 447.2C248.5 486.8 216.4 518.9 176.8 518.9C137.2 518.9 105.1 486.8 105.1 447.2C105.1 407.6 137.2 375.5 176.8 375.5C216.4 375.5 248.5 407.6 248.5 447.2Z" fill="#FCEF3C"></path>
<path d="M426.666 57.9106C426.666 57.9106 421.297 82.2619 412.905 109.832C404.514 137.402 393.019 168.109 393.019 168.109C400.19 152.037 410.012 149.842 421.257 141.579L426.848 141.54L427.01 141.541L432.602 141.502C442.888 153.006 453.912 152.602 461.568 169.11C461.568 169.11 450.443 139.691 441.658 111.83C432.952 84.0511 426.666 57.9106 426.666 57.9106Z" fill="black"></path>
<path d="M426.918 67.4747L427.01 141.623Z" fill="black"></path>
<path d="M421.637 144.905L419.737 160.53L434.81 160.4L432.657 144.987L421.637 144.905Z" fill="black"></path>
<path d="M422.045 497.81L421.96 160.938H433.667L433.753 497.81H422.045Z" fill="black"></path>
<path d="M421.276 488.068L392.99 516.269L395.126 403.893L421.361 373.128L421.276 488.068Z" fill="black"></path>
<path d="M433.325 487.47L461.612 515.671L459.475 403.295L433.24 372.53L433.325 487.47Z" fill="black"></path>
<path d="M415.294 430.128L399.912 441.323Z" fill="black"></path>
<path d="M414.952 441.067L399.57 452.262Z" fill="black"></path>
<path d="M414.525 453.202L399.143 464.397Z" fill="black"></path>
<path d="M414.525 465.166L399.143 476.361Z" fill="black"></path>
<path d="M414.525 475.677L399.143 486.872Z" fill="black"></path>
<path d="M414.525 486.872L399.143 498.067Z" fill="black"></path>
<path d="M439.427 429.946L454.809 441.141Z" fill="black"></path>
<path d="M439.683 440.799L455.066 451.994Z" fill="black"></path>
<path d="M440.111 453.019L455.493 464.214Z" fill="black"></path>
<path d="M440.111 464.898L455.493 476.093Z" fill="black"></path>
<path d="M440.111 475.409L455.493 486.604Z" fill="black"></path>
<path d="M440.111 486.604L455.493 497.799Z" fill="black"></path>
<path d="M597.5 0.0999756V258.7M597.5 258.7C597.5 544.2 299 656.5 299 656.5C299 656.5 0.5 544.2 0.5 258.7V0.999976H597.5M597.5 258.7C597.5 172.8 597.5 86.9 597.5 0.999976M597.5 0.999976V287.8C579.1 547.3 311.4 652.9 301 656.9V0.999976H597.5ZM426.918 67.4747L427.01 141.623M415.294 430.128L399.912 441.323M414.952 441.067L399.57 452.262M414.525 453.202L399.143 464.397M414.525 465.166L399.143 476.361M414.525 475.677L399.143 486.872M414.525 486.872L399.143 498.067M439.427 429.946L454.809 441.141M439.683 440.799L455.066 451.994M440.111 453.019L455.493 464.214M440.111 464.898L455.493 476.093M440.111 475.409L455.493 486.604M440.111 486.604L455.493 497.799M248.5 110.7C248.5 150.3 216.4 182.4 176.8 182.4C137.2 182.4 105.1 150.3 105.1 110.7C105.1 71.1 137.3 39 176.9 39C216.5 39 248.5 71.1 248.5 110.7ZM248.5 279.1C248.5 318.7 216.4 350.8 176.8 350.8C137.2 350.8 105.1 318.7 105.1 279.1C105.1 239.5 137.2 207.4 176.8 207.4C216.4 207.4 248.5 239.6 248.5 279.1ZM248.5 447.2C248.5 486.8 216.4 518.9 176.8 518.9C137.2 518.9 105.1 486.8 105.1 447.2C105.1 407.6 137.2 375.5 176.8 375.5C216.4 375.5 248.5 407.6 248.5 447.2ZM426.666 57.9106C426.666 57.9106 421.297 82.2619 412.905 109.832C404.514 137.402 393.019 168.109 393.019 168.109C400.19 152.037 410.012 149.842 421.257 141.579L426.848 141.54L427.01 141.541L432.602 141.502C442.888 153.006 453.912 152.602 461.568 169.11C461.568 169.11 450.443 139.691 441.658 111.83C432.952 84.0511 426.666 57.9106 426.666 57.9106ZM421.637 144.905L419.737 160.53L434.81 160.4L432.657 144.987L421.637 144.905ZM422.045 497.81L421.96 160.938H433.667L433.753 497.81H422.045ZM421.276 488.068L392.99 516.269L395.126 403.893L421.361 373.128L421.276 488.068ZM433.325 487.47L461.612 515.671L459.475 403.295L433.24 372.53L433.325 487.47Z" stroke="#313131" stroke-width="0.938917" stroke-miterlimit="3.4183"></path>
</svg><style>@media (prefers-color-scheme: light) { :root { filter: none; } }
</style></svg>